<svg xmlns="http://www.w3.org/2000/svg" width="77.13" height="108.312" viewBox="0 0 77.13 108.312">
  <g id="Group_464" data-name="Group 464" transform="translate(-74 -50.333)">
    <path id="Path_566" data-name="Path 566" d="M655.274,166.558l-26.283-7.029v94.353l26.419,7.07,50.711-14.258V152.641Z" transform="translate(-554.992 -102.307)" fill="#fff"/>
    <g id="Group_459" data-name="Group 459" transform="translate(88.087 68.793)">
      <path id="Path_543" data-name="Path 543" d="M642.328,163.526l-12.238-3.274v15.062l12.238,3.274,18.36-5.159V158.367Z" transform="translate(-630.09 -103.345)" fill="#fff"/>
      <path id="Path_544" data-name="Path 544" d="M642.328,166.085l-12.238-3.274v15.063l12.238,3.274,36.72-10.049V156.036Z" transform="translate(-630.09 -130.923)" fill="#fff"/>
      <path id="Path_545" data-name="Path 545" d="M642.328,164.13l-12.238-3.274v15.063l12.238,3.274,36.72-10.051V154.079Z" transform="translate(-630.09 -154.079)" fill="#fff"/>
    </g>
    <g id="Group_461" data-name="Group 461" transform="translate(88.087 68.793)">
      <path id="Path_543-2" data-name="Path 543" d="M642.328,163.526l-12.238-3.274v15.062l12.238,3.274,18.36-5.159V158.367Z" transform="translate(-630.09 -103.345)" fill="#2e353b"/>
      <path id="Path_544-2" data-name="Path 544" d="M642.328,166.085l-12.238-3.274v15.063l12.238,3.274,36.72-10.049V156.036Z" transform="translate(-630.09 -130.923)" fill="#2e353b"/>
      <path id="Path_545-2" data-name="Path 545" d="M642.328,164.13l-12.238-3.274v15.063l12.238,3.274,36.72-10.051V154.079Z" transform="translate(-630.09 -154.079)" fill="#2e353b"/>
    </g>
  </g>
</svg>
