<svg xmlns="http://www.w3.org/2000/svg" width="39.945" height="56.094" viewBox="0 0 39.945 56.094">
  <g id="Group_464" data-name="Group 464" transform="translate(-74 -50.333)">
    <path id="Path_566" data-name="Path 566" d="M642.6,159.848l-13.612-3.64v48.865l13.682,3.662,26.263-7.384v-48.71Z" transform="translate(-554.992 -102.307)" fill="#fff"/>
    <g id="Group_459" data-name="Group 459" transform="translate(81.295 59.893)">
      <path id="Path_543" data-name="Path 543" d="M636.428,161.039l-6.338-1.7v7.8l6.338,1.7,9.509-2.672v-7.8Z" transform="translate(-630.09 -129.871)" fill="#fff"/>
      <path id="Path_544" data-name="Path 544" d="M636.428,161.24l-6.338-1.7v7.8l6.338,1.7,19.017-5.2v-7.8Z" transform="translate(-630.09 -143.03)" fill="#fff"/>
      <path id="Path_545" data-name="Path 545" d="M636.428,159.284l-6.338-1.7v7.8l6.338,1.7,19.017-5.205v-7.8Z" transform="translate(-630.09 -154.079)" fill="#fff"/>
    </g>
    <g id="Group_461" data-name="Group 461" transform="translate(81.295 59.893)">
      <path id="Path_543-2" data-name="Path 543" d="M636.428,161.039l-6.338-1.7v7.8l6.338,1.7,9.509-2.672v-7.8Z" transform="translate(-630.09 -129.871)" fill="#2e353b"/>
      <path id="Path_544-2" data-name="Path 544" d="M636.428,161.24l-6.338-1.7v7.8l6.338,1.7,19.017-5.2v-7.8Z" transform="translate(-630.09 -143.03)" fill="#2e353b"/>
      <path id="Path_545-2" data-name="Path 545" d="M636.428,159.284l-6.338-1.7v7.8l6.338,1.7,19.017-5.205v-7.8Z" transform="translate(-630.09 -154.079)" fill="#2e353b"/>
    </g>
  </g>
</svg>
