<svg xmlns="http://www.w3.org/2000/svg" width="115.74" height="41.342" viewBox="0 0 115.74 41.342">
  <g id="Group_508" data-name="Group 508" transform="translate(-73.5 -49.345)">
    <path id="Subtraction_2" data-name="Subtraction 2" d="M9.548,39.145h0L0,36.589V2.49L9.5,5.03,27.876,0V33.992L9.548,39.145ZM5.091,27.238v5.444l4.423,1.183L16.149,32V26.557L9.514,28.421,5.091,27.238Zm0-9.042V23.64l4.423,1.184,13.271-3.632V15.747L9.514,19.379,5.091,18.2Zm0-9.076v5.444l4.423,1.183,13.271-3.632V6.671L9.514,10.3,5.091,9.12Z" transform="translate(74 50)" fill="#1a1d21" stroke="rgba(0,0,0,0)" stroke-miterlimit="10" stroke-width="1"/>
    <g id="Group_460" data-name="Group 460" transform="translate(106.966 62.115)">
      <path id="Path_546" data-name="Path 546" d="M638.84,165.021l-1.943-5.267h-.8l2.3,6.046h.9l2.292-6.046h-.8Z" transform="translate(-636.101 -138.882)" fill="#1a1d21"/>
      <path id="Path_547" data-name="Path 547" d="M639.42,160.078a4.5,4.5,0,0,0-1.586.25v.64a4.479,4.479,0,0,1,1.479-.246,2.46,2.46,0,0,1,.789.1.6.6,0,0,1,.376.3,1.3,1.3,0,0,1,.106.589v.274h-1.549a1.92,1.92,0,0,0-1.3.371,1.288,1.288,0,0,0-.422,1.016,1.193,1.193,0,0,0,.445,1,1.78,1.78,0,0,0,1.122.348,3.138,3.138,0,0,0,1.02-.148,1.69,1.69,0,0,0,.705-.455l.06.51h.649V161.71a1.517,1.517,0,0,0-.473-1.243A2.165,2.165,0,0,0,639.42,160.078Zm1.164,3.362a1.882,1.882,0,0,1-1.507.645,1.4,1.4,0,0,1-.747-.162.6.6,0,0,1-.255-.552.759.759,0,0,1,.227-.6,1.161,1.161,0,0,1,.747-.195h1.535Z" transform="translate(-631.683 -137.703)" fill="#1a1d21"/>
      <path id="Path_548" data-name="Path 548" d="M641.206,162.406a4.645,4.645,0,0,0-.863-.338c-.334-.107-.57-.186-.7-.241a.733.733,0,0,1-.306-.2.488.488,0,0,1-.111-.339.434.434,0,0,1,.251-.431,2.037,2.037,0,0,1,.849-.125,3.52,3.52,0,0,1,1.136.2v-.677a4.109,4.109,0,0,0-1.261-.176,2.239,2.239,0,0,0-1.322.311,1.045,1.045,0,0,0-.422.909,1.121,1.121,0,0,0,.158.626,1.157,1.157,0,0,0,.427.376,6.761,6.761,0,0,0,.738.292l.255.088a4.787,4.787,0,0,1,.608.218.811.811,0,0,1,.292.213.538.538,0,0,1,.107.348.488.488,0,0,1-.246.473,2.05,2.05,0,0,1-.854.125,4.089,4.089,0,0,1-1.368-.223v.672a3.172,3.172,0,0,0,.654.153,5.829,5.829,0,0,0,.816.056q1.767,0,1.767-1.266a1.255,1.255,0,0,0-.144-.631A1.2,1.2,0,0,0,641.206,162.406Z" transform="translate(-627.551 -137.703)" fill="#1a1d21"/>
      <path id="Path_549" data-name="Path 549" d="M641.008,164.9a.761.761,0,0,1-.19-.584v-2.564h1.187l.046-.607h-1.233v-1.331l-.77.232v1.1h-.673v.607h.673v2.606a1.35,1.35,0,0,0,.343.983,1.314,1.314,0,0,0,.988.348,2.2,2.2,0,0,0,.793-.135v-.58a1.674,1.674,0,0,1-.533.093A.933.933,0,0,1,641.008,164.9Z" transform="translate(-624.186 -138.674)" fill="#1a1d21"/>
      <path id="Path_550" data-name="Path 550" d="M642.094,160.078a2.353,2.353,0,0,0-1.489.385,1.466,1.466,0,0,0-.473,1.21,1.328,1.328,0,0,0,.728,1.312,1,1,0,0,0-.515.343.857.857,0,0,0-.176.533.693.693,0,0,0,.306.612,1.626,1.626,0,0,0,.923.213h1.182a1.3,1.3,0,0,1,.617.1.381.381,0,0,1,.171.348.4.4,0,0,1-.139.334.917.917,0,0,1-.422.144,6.063,6.063,0,0,1-.8.037,6.891,6.891,0,0,1-.914-.065,4.789,4.789,0,0,1-.83-.186v.635a5.488,5.488,0,0,0,1.786.236,3.547,3.547,0,0,0,1.572-.269.925.925,0,0,0,.519-.9.911.911,0,0,0-.357-.779,1.664,1.664,0,0,0-1.025-.274h-1.224a1.083,1.083,0,0,1-.464-.07.246.246,0,0,1-.13-.241.453.453,0,0,1,.241-.39,1.156,1.156,0,0,1,.557-.172,4.892,4.892,0,0,0,.542.046,1.9,1.9,0,0,0,1.322-.4,1.506,1.506,0,0,0,.436-1.155,1.242,1.242,0,0,0-.4-.979h.807l.028-.524h-1.6A3.464,3.464,0,0,0,642.094,160.078Zm1.173,1.6a.951.951,0,0,1-.26.761,1.458,1.458,0,0,1-.913.213,1.489,1.489,0,0,1-.923-.223.927.927,0,0,1-.269-.751.976.976,0,0,1,.278-.793,1.382,1.382,0,0,1,.914-.241,1.335,1.335,0,0,1,.9.246A1.03,1.03,0,0,1,643.267,161.673Z" transform="translate(-621.437 -137.703)" fill="#1a1d21"/>
      <path id="Path_551" data-name="Path 551" d="M643.374,160.078c-1.484,0-2.226.77-2.226,2.319a2.452,2.452,0,0,0,.543,1.734,2.717,2.717,0,0,0,3.367,0,2.453,2.453,0,0,0,.538-1.734C645.6,160.848,644.858,160.078,643.374,160.078Zm1.122,3.585a1.795,1.795,0,0,1-2.245,0,2.56,2.56,0,0,1,0-2.537,1.782,1.782,0,0,1,2.235,0,1.931,1.931,0,0,1,.334,1.271A1.953,1.953,0,0,1,644.5,163.663Z" transform="translate(-617.741 -137.703)" fill="#1a1d21"/>
      <path id="Path_552" data-name="Path 552" d="M644.479,160.078a2.016,2.016,0,0,0-1.6.6,2.492,2.492,0,0,0-.524,1.7,2.37,2.37,0,0,0,.589,1.767,2.466,2.466,0,0,0,1.781.57,3.434,3.434,0,0,0,1.41-.255v-.6a3.346,3.346,0,0,1-1.256.232,3.112,3.112,0,0,1-.984-.125,1.069,1.069,0,0,1-.556-.413,1.673,1.673,0,0,1-.213-.8h3.292v-.835a1.851,1.851,0,0,0-.492-1.336A1.923,1.923,0,0,0,644.479,160.078Zm1.247,2.119h-2.606a1.749,1.749,0,0,1,.3-1.141,1.343,1.343,0,0,1,1.071-.362,1.308,1.308,0,0,1,.942.292,1.138,1.138,0,0,1,.292.844Z" transform="translate(-613.365 -137.703)" fill="#1a1d21"/>
      <path id="Path_553" data-name="Path 553" d="M646.972,161.9a2.453,2.453,0,0,0-.668-.32,2.706,2.706,0,0,0-.779-.1,1.921,1.921,0,0,0-1.512.6,2.589,2.589,0,0,0-.542,1.781,2.406,2.406,0,0,0,.514,1.711,1.963,1.963,0,0,0,1.489.543,2.456,2.456,0,0,0,.872-.139,1.933,1.933,0,0,0,.677-.422l.06.468h.659v-6.33h-.77Zm0,3.061a1.693,1.693,0,0,1-1.3.533,1.4,1.4,0,0,1-1.108-.38,1.912,1.912,0,0,1-.324-1.252,2.119,2.119,0,0,1,.348-1.34,1.358,1.358,0,0,1,1.1-.427,1.854,1.854,0,0,1,1.28.445Z" transform="translate(-609.291 -139.103)" fill="#1a1d21"/>
      <path id="Path_554" data-name="Path 554" d="M639.965,165.956h8.041v-2.977h-8.041v-4.721h9.1v-3.005H636.1v18.429h3.864Z" transform="translate(-636.101 -155.253)" fill="#1a1d21"/>
      <path id="Path_555" data-name="Path 555" d="M648.973,168.577l.144,1.289h3.58V156.3h-3.863v9.613a4.98,4.98,0,0,1-1.475,1.016,4.28,4.28,0,0,1-1.818.389,2.748,2.748,0,0,1-1.99-.631,2.672,2.672,0,0,1-.644-1.976V156.3h-3.863v8.5a5.471,5.471,0,0,0,1.345,3.979,5.1,5.1,0,0,0,3.812,1.373A7.4,7.4,0,0,0,648.973,168.577Z" transform="translate(-625.394 -151.438)" fill="#1a1d21"/>
      <path id="Path_556" data-name="Path 556" d="M654.815,165.915a4.918,4.918,0,0,1-1.475,1.016,4.274,4.274,0,0,1-1.813.389,2.732,2.732,0,0,1-1.99-.631,2.67,2.67,0,0,1-.645-1.976V156.3H645.03v8.5a5.452,5.452,0,0,0,1.344,3.979,5.086,5.086,0,0,0,3.807,1.373,7.415,7.415,0,0,0,4.776-1.577l.144,1.289h3.575V156.3h-3.863Z" transform="translate(-603.621 -151.438)" fill="#1a1d21"/>
      <path id="Path_557" data-name="Path 557" d="M652.554,157.932l-.171-1.405h-3.575v13.564h3.863v-9.47a10.6,10.6,0,0,1,2.2-.876,18.689,18.689,0,0,1,2.634-.584V156.24a13.742,13.742,0,0,0-2.662.631A10.551,10.551,0,0,0,652.554,157.932Z" transform="translate(-589.882 -151.663)" fill="#1a1d21"/>
      <path id="Path_558" data-name="Path 558" d="M664.347,162.194a5.7,5.7,0,0,0-1.706-4.336,6.668,6.668,0,0,0-4.8-1.618,6.747,6.747,0,0,0-5.134,1.86,7.243,7.243,0,0,0-1.758,5.18,6.726,6.726,0,0,0,2.017,5.31,8.187,8.187,0,0,0,5.621,1.79,12.045,12.045,0,0,0,4.953-.863v-2.745a9.978,9.978,0,0,1-1.934.515,12.587,12.587,0,0,1-2.217.2,7.4,7.4,0,0,1-3.422-.626,2.938,2.938,0,0,1-1.442-2.2h9.817Zm-3.376.083h-6.442a3.435,3.435,0,0,1,.77-2.5,3.772,3.772,0,0,1,2.662-.756c2,0,3.01.839,3.01,2.518Z" transform="translate(-582.073 -151.663)" fill="#1a1d21"/>
      <path id="Path_559" data-name="Path 559" d="M648.849,169.474a1.94,1.94,0,0,1-.5-1.516V161.92h3.2l.227-2.977h-3.432v-3.367l-3.863,1.057v2.309h-1.915v2.977h1.915v6.293a4.7,4.7,0,0,0,1.141,3.376,4.576,4.576,0,0,0,3.464,1.206,8.124,8.124,0,0,0,3.033-.515v-2.662a5.24,5.24,0,0,1-1.656.283A2.483,2.483,0,0,1,648.849,169.474Z" transform="translate(-612.554 -154.078)" fill="#1a1d21"/>
    </g>
    <g id="Group_462" data-name="Group 462" transform="translate(106.966 62.115)">
      <path id="Path_546-2" data-name="Path 546" d="M638.84,165.021l-1.943-5.267h-.8l2.3,6.046h.9l2.292-6.046h-.8Z" transform="translate(-636.101 -138.882)" fill="#1a1d21"/>
      <path id="Path_547-2" data-name="Path 547" d="M639.42,160.078a4.5,4.5,0,0,0-1.586.25v.64a4.479,4.479,0,0,1,1.479-.246,2.46,2.46,0,0,1,.789.1.6.6,0,0,1,.376.3,1.3,1.3,0,0,1,.106.589v.274h-1.549a1.92,1.92,0,0,0-1.3.371,1.288,1.288,0,0,0-.422,1.016,1.193,1.193,0,0,0,.445,1,1.78,1.78,0,0,0,1.122.348,3.138,3.138,0,0,0,1.02-.148,1.69,1.69,0,0,0,.705-.455l.06.51h.649V161.71a1.517,1.517,0,0,0-.473-1.243A2.165,2.165,0,0,0,639.42,160.078Zm1.164,3.362a1.882,1.882,0,0,1-1.507.645,1.4,1.4,0,0,1-.747-.162.6.6,0,0,1-.255-.552.759.759,0,0,1,.227-.6,1.161,1.161,0,0,1,.747-.195h1.535Z" transform="translate(-631.683 -137.703)" fill="#1a1d21"/>
      <path id="Path_548-2" data-name="Path 548" d="M641.206,162.406a4.645,4.645,0,0,0-.863-.338c-.334-.107-.57-.186-.7-.241a.733.733,0,0,1-.306-.2.488.488,0,0,1-.111-.339.434.434,0,0,1,.251-.431,2.037,2.037,0,0,1,.849-.125,3.52,3.52,0,0,1,1.136.2v-.677a4.109,4.109,0,0,0-1.261-.176,2.239,2.239,0,0,0-1.322.311,1.045,1.045,0,0,0-.422.909,1.121,1.121,0,0,0,.158.626,1.157,1.157,0,0,0,.427.376,6.761,6.761,0,0,0,.738.292l.255.088a4.787,4.787,0,0,1,.608.218.811.811,0,0,1,.292.213.538.538,0,0,1,.107.348.488.488,0,0,1-.246.473,2.05,2.05,0,0,1-.854.125,4.089,4.089,0,0,1-1.368-.223v.672a3.172,3.172,0,0,0,.654.153,5.829,5.829,0,0,0,.816.056q1.767,0,1.767-1.266a1.255,1.255,0,0,0-.144-.631A1.2,1.2,0,0,0,641.206,162.406Z" transform="translate(-627.551 -137.703)" fill="#1a1d21"/>
      <path id="Path_549-2" data-name="Path 549" d="M641.008,164.9a.761.761,0,0,1-.19-.584v-2.564h1.187l.046-.607h-1.233v-1.331l-.77.232v1.1h-.673v.607h.673v2.606a1.35,1.35,0,0,0,.343.983,1.314,1.314,0,0,0,.988.348,2.2,2.2,0,0,0,.793-.135v-.58a1.674,1.674,0,0,1-.533.093A.933.933,0,0,1,641.008,164.9Z" transform="translate(-624.186 -138.674)" fill="#1a1d21"/>
      <path id="Path_550-2" data-name="Path 550" d="M642.094,160.078a2.353,2.353,0,0,0-1.489.385,1.466,1.466,0,0,0-.473,1.21,1.328,1.328,0,0,0,.728,1.312,1,1,0,0,0-.515.343.857.857,0,0,0-.176.533.693.693,0,0,0,.306.612,1.626,1.626,0,0,0,.923.213h1.182a1.3,1.3,0,0,1,.617.1.381.381,0,0,1,.171.348.4.4,0,0,1-.139.334.917.917,0,0,1-.422.144,6.063,6.063,0,0,1-.8.037,6.891,6.891,0,0,1-.914-.065,4.789,4.789,0,0,1-.83-.186v.635a5.488,5.488,0,0,0,1.786.236,3.547,3.547,0,0,0,1.572-.269.925.925,0,0,0,.519-.9.911.911,0,0,0-.357-.779,1.664,1.664,0,0,0-1.025-.274h-1.224a1.083,1.083,0,0,1-.464-.07.246.246,0,0,1-.13-.241.453.453,0,0,1,.241-.39,1.156,1.156,0,0,1,.557-.172,4.892,4.892,0,0,0,.542.046,1.9,1.9,0,0,0,1.322-.4,1.506,1.506,0,0,0,.436-1.155,1.242,1.242,0,0,0-.4-.979h.807l.028-.524h-1.6A3.464,3.464,0,0,0,642.094,160.078Zm1.173,1.6a.951.951,0,0,1-.26.761,1.458,1.458,0,0,1-.913.213,1.489,1.489,0,0,1-.923-.223.927.927,0,0,1-.269-.751.976.976,0,0,1,.278-.793,1.382,1.382,0,0,1,.914-.241,1.335,1.335,0,0,1,.9.246A1.03,1.03,0,0,1,643.267,161.673Z" transform="translate(-621.437 -137.703)" fill="#1a1d21"/>
      <path id="Path_551-2" data-name="Path 551" d="M643.374,160.078c-1.484,0-2.226.77-2.226,2.319a2.452,2.452,0,0,0,.543,1.734,2.717,2.717,0,0,0,3.367,0,2.453,2.453,0,0,0,.538-1.734C645.6,160.848,644.858,160.078,643.374,160.078Zm1.122,3.585a1.795,1.795,0,0,1-2.245,0,2.56,2.56,0,0,1,0-2.537,1.782,1.782,0,0,1,2.235,0,1.931,1.931,0,0,1,.334,1.271A1.953,1.953,0,0,1,644.5,163.663Z" transform="translate(-617.741 -137.703)" fill="#1a1d21"/>
      <path id="Path_552-2" data-name="Path 552" d="M644.479,160.078a2.016,2.016,0,0,0-1.6.6,2.492,2.492,0,0,0-.524,1.7,2.37,2.37,0,0,0,.589,1.767,2.466,2.466,0,0,0,1.781.57,3.434,3.434,0,0,0,1.41-.255v-.6a3.346,3.346,0,0,1-1.256.232,3.112,3.112,0,0,1-.984-.125,1.069,1.069,0,0,1-.556-.413,1.673,1.673,0,0,1-.213-.8h3.292v-.835a1.851,1.851,0,0,0-.492-1.336A1.923,1.923,0,0,0,644.479,160.078Zm1.247,2.119h-2.606a1.749,1.749,0,0,1,.3-1.141,1.343,1.343,0,0,1,1.071-.362,1.308,1.308,0,0,1,.942.292,1.138,1.138,0,0,1,.292.844Z" transform="translate(-613.365 -137.703)" fill="#1a1d21"/>
      <path id="Path_553-2" data-name="Path 553" d="M646.972,161.9a2.453,2.453,0,0,0-.668-.32,2.706,2.706,0,0,0-.779-.1,1.921,1.921,0,0,0-1.512.6,2.589,2.589,0,0,0-.542,1.781,2.406,2.406,0,0,0,.514,1.711,1.963,1.963,0,0,0,1.489.543,2.456,2.456,0,0,0,.872-.139,1.933,1.933,0,0,0,.677-.422l.06.468h.659v-6.33h-.77Zm0,3.061a1.693,1.693,0,0,1-1.3.533,1.4,1.4,0,0,1-1.108-.38,1.912,1.912,0,0,1-.324-1.252,2.119,2.119,0,0,1,.348-1.34,1.358,1.358,0,0,1,1.1-.427,1.854,1.854,0,0,1,1.28.445Z" transform="translate(-609.291 -139.103)" fill="#1a1d21"/>
      <path id="Path_554-2" data-name="Path 554" d="M639.965,165.956h8.041v-2.977h-8.041v-4.721h9.1v-3.005H636.1v18.429h3.864Z" transform="translate(-636.101 -155.253)" fill="#1a1d21"/>
      <path id="Path_555-2" data-name="Path 555" d="M648.973,168.577l.144,1.289h3.58V156.3h-3.863v9.613a4.98,4.98,0,0,1-1.475,1.016,4.28,4.28,0,0,1-1.818.389,2.748,2.748,0,0,1-1.99-.631,2.672,2.672,0,0,1-.644-1.976V156.3h-3.863v8.5a5.471,5.471,0,0,0,1.345,3.979,5.1,5.1,0,0,0,3.812,1.373A7.4,7.4,0,0,0,648.973,168.577Z" transform="translate(-625.394 -151.438)" fill="#1a1d21"/>
      <path id="Path_556-2" data-name="Path 556" d="M654.815,165.915a4.918,4.918,0,0,1-1.475,1.016,4.274,4.274,0,0,1-1.813.389,2.732,2.732,0,0,1-1.99-.631,2.67,2.67,0,0,1-.645-1.976V156.3H645.03v8.5a5.452,5.452,0,0,0,1.344,3.979,5.086,5.086,0,0,0,3.807,1.373,7.415,7.415,0,0,0,4.776-1.577l.144,1.289h3.575V156.3h-3.863Z" transform="translate(-603.621 -151.438)" fill="#1a1d21"/>
      <path id="Path_557-2" data-name="Path 557" d="M652.554,157.932l-.171-1.405h-3.575v13.564h3.863v-9.47a10.6,10.6,0,0,1,2.2-.876,18.689,18.689,0,0,1,2.634-.584V156.24a13.742,13.742,0,0,0-2.662.631A10.551,10.551,0,0,0,652.554,157.932Z" transform="translate(-589.882 -151.663)" fill="#1a1d21"/>
      <path id="Path_558-2" data-name="Path 558" d="M664.347,162.194a5.7,5.7,0,0,0-1.706-4.336,6.668,6.668,0,0,0-4.8-1.618,6.747,6.747,0,0,0-5.134,1.86,7.243,7.243,0,0,0-1.758,5.18,6.726,6.726,0,0,0,2.017,5.31,8.187,8.187,0,0,0,5.621,1.79,12.045,12.045,0,0,0,4.953-.863v-2.745a9.978,9.978,0,0,1-1.934.515,12.587,12.587,0,0,1-2.217.2,7.4,7.4,0,0,1-3.422-.626,2.938,2.938,0,0,1-1.442-2.2h9.817Zm-3.376.083h-6.442a3.435,3.435,0,0,1,.77-2.5,3.772,3.772,0,0,1,2.662-.756c2,0,3.01.839,3.01,2.518Z" transform="translate(-582.073 -151.663)" fill="#1a1d21"/>
      <path id="Path_559-2" data-name="Path 559" d="M648.849,169.474a1.94,1.94,0,0,1-.5-1.516V161.92h3.2l.227-2.977h-3.432v-3.367l-3.863,1.057v2.309h-1.915v2.977h1.915v6.293a4.7,4.7,0,0,0,1.141,3.376,4.576,4.576,0,0,0,3.464,1.206,8.124,8.124,0,0,0,3.033-.515v-2.662a5.24,5.24,0,0,1-1.656.283A2.483,2.483,0,0,1,648.849,169.474Z" transform="translate(-612.554 -154.078)" fill="#1a1d21"/>
    </g>
  </g>
</svg>
