<svg xmlns="http://www.w3.org/2000/svg" width="168.555" height="59.988" viewBox="0 0 168.555 59.988">
  <g id="Group_506" data-name="Group 506" transform="translate(-73.5 -49.345)">
    <path id="Subtraction_2" data-name="Subtraction 2" d="M2805.924,57.084h0L2792,53.358V3.631l13.852,3.7L2832.651,0V49.57l-26.727,7.514Zm-6.5-17.363V47.66l6.45,1.725,9.676-2.719V38.728l-9.676,2.719-6.45-1.725Zm0-13.186v7.938l6.45,1.726,19.353-5.3V22.964l-19.353,5.3-6.45-1.725Zm0-13.235v7.939l6.45,1.725,19.353-5.3V9.729l-19.353,5.3-6.45-1.726Z" transform="translate(-2718 50)" fill="#1a1d21" stroke="rgba(0,0,0,0)" stroke-miterlimit="10" stroke-width="1"/>
    <g id="Group_460" data-name="Group 460" transform="translate(122.074 67.668)">
      <path id="Path_546" data-name="Path 546" d="M640.1,167.435l-2.833-7.681H636.1l3.355,8.817h1.314l3.342-8.817h-1.169Z" transform="translate(-636.101 -129.316)" fill="#1a1d21"/>
      <path id="Path_547" data-name="Path 547" d="M640.385,160.078a6.558,6.558,0,0,0-2.313.365v.933a6.532,6.532,0,0,1,2.157-.358,3.587,3.587,0,0,1,1.15.142.876.876,0,0,1,.548.44,1.9,1.9,0,0,1,.155.859v.4h-2.259a2.8,2.8,0,0,0-1.893.541,1.879,1.879,0,0,0-.616,1.481,1.739,1.739,0,0,0,.649,1.454,2.6,2.6,0,0,0,1.637.507,4.576,4.576,0,0,0,1.487-.216,2.464,2.464,0,0,0,1.029-.663l.088.744h.946v-4.247a2.213,2.213,0,0,0-.69-1.812A3.157,3.157,0,0,0,640.385,160.078Zm1.7,4.9a2.745,2.745,0,0,1-2.2.94,2.049,2.049,0,0,1-1.089-.237.879.879,0,0,1-.372-.8,1.107,1.107,0,0,1,.332-.879,1.693,1.693,0,0,1,1.089-.284h2.238Z" transform="translate(-629.102 -127.448)" fill="#1a1d21"/>
      <path id="Path_548" data-name="Path 548" d="M642.468,163.473a6.775,6.775,0,0,0-1.258-.494c-.487-.156-.831-.271-1.028-.352a1.069,1.069,0,0,1-.446-.291.712.712,0,0,1-.162-.494.634.634,0,0,1,.365-.629,2.971,2.971,0,0,1,1.238-.183,5.134,5.134,0,0,1,1.657.291v-.987a5.991,5.991,0,0,0-1.84-.257,3.265,3.265,0,0,0-1.927.453,1.524,1.524,0,0,0-.616,1.325,1.635,1.635,0,0,0,.23.913,1.688,1.688,0,0,0,.622.548,9.865,9.865,0,0,0,1.076.426l.371.129a6.981,6.981,0,0,1,.886.318,1.182,1.182,0,0,1,.426.311.784.784,0,0,1,.155.507.711.711,0,0,1-.358.69,2.99,2.99,0,0,1-1.245.183,5.964,5.964,0,0,1-1.995-.325v.981a4.626,4.626,0,0,0,.953.223,8.5,8.5,0,0,0,1.191.081q2.576,0,2.576-1.846a1.831,1.831,0,0,0-.209-.92A1.753,1.753,0,0,0,642.468,163.473Z" transform="translate(-622.555 -127.448)" fill="#1a1d21"/>
      <path id="Path_549" data-name="Path 549" d="M641.757,167.23a1.11,1.11,0,0,1-.277-.852v-3.74h1.731l.067-.886h-1.8v-1.941l-1.123.338v1.6h-.981v.886h.981v3.8a1.969,1.969,0,0,0,.5,1.434,1.917,1.917,0,0,0,1.44.507,3.21,3.21,0,0,0,1.156-.2v-.845a2.442,2.442,0,0,1-.778.135A1.361,1.361,0,0,1,641.757,167.23Z" transform="translate(-617.225 -128.987)" fill="#1a1d21"/>
      <path id="Path_550" data-name="Path 550" d="M642.993,160.078a3.432,3.432,0,0,0-2.171.561,2.137,2.137,0,0,0-.689,1.765,1.937,1.937,0,0,0,1.061,1.914,1.465,1.465,0,0,0-.751.5,1.25,1.25,0,0,0-.257.778,1.011,1.011,0,0,0,.447.893,2.371,2.371,0,0,0,1.346.311H643.7a1.889,1.889,0,0,1,.9.149.556.556,0,0,1,.25.507.585.585,0,0,1-.2.487,1.337,1.337,0,0,1-.615.21,8.842,8.842,0,0,1-1.17.054,10.051,10.051,0,0,1-1.332-.095,6.984,6.984,0,0,1-1.211-.271v.927a8,8,0,0,0,2.6.345,5.172,5.172,0,0,0,2.293-.392,1.349,1.349,0,0,0,.757-1.305,1.328,1.328,0,0,0-.521-1.136,2.427,2.427,0,0,0-1.495-.4h-1.785a1.58,1.58,0,0,1-.677-.1.359.359,0,0,1-.189-.352.661.661,0,0,1,.351-.568,1.686,1.686,0,0,1,.812-.25,7.132,7.132,0,0,0,.791.068,2.773,2.773,0,0,0,1.927-.588,2.2,2.2,0,0,0,.636-1.684,1.811,1.811,0,0,0-.588-1.427h1.176l.041-.764h-2.34A5.051,5.051,0,0,0,642.993,160.078ZM644.7,162.4a1.388,1.388,0,0,1-.379,1.109,2.126,2.126,0,0,1-1.332.311,2.171,2.171,0,0,1-1.346-.325,1.352,1.352,0,0,1-.392-1.1,1.423,1.423,0,0,1,.406-1.156,2.015,2.015,0,0,1,1.333-.352,1.946,1.946,0,0,1,1.318.358A1.5,1.5,0,0,1,644.7,162.4Z" transform="translate(-612.869 -127.448)" fill="#1a1d21"/>
      <path id="Path_551" data-name="Path 551" d="M644.394,160.078c-2.164,0-3.246,1.123-3.246,3.381a3.576,3.576,0,0,0,.792,2.529,3.961,3.961,0,0,0,4.909,0,3.577,3.577,0,0,0,.784-2.529C647.633,161.2,646.558,160.078,644.394,160.078Zm1.637,5.228a2.617,2.617,0,0,1-3.273,0,3.734,3.734,0,0,1,.007-3.7,2.6,2.6,0,0,1,3.26,0,2.816,2.816,0,0,1,.486,1.853A2.849,2.849,0,0,1,646.031,165.306Z" transform="translate(-607.013 -127.448)" fill="#1a1d21"/>
      <path id="Path_552" data-name="Path 552" d="M645.455,160.078a2.939,2.939,0,0,0-2.34.872,3.634,3.634,0,0,0-.764,2.482,3.456,3.456,0,0,0,.859,2.577,3.6,3.6,0,0,0,2.6.832,5.009,5.009,0,0,0,2.056-.372V165.6a4.88,4.88,0,0,1-1.832.338,4.538,4.538,0,0,1-1.434-.183,1.559,1.559,0,0,1-.811-.6,2.44,2.44,0,0,1-.311-1.17h4.8v-1.217a2.7,2.7,0,0,0-.717-1.948A2.8,2.8,0,0,0,645.455,160.078Zm1.819,3.091h-3.8a2.551,2.551,0,0,1,.439-1.664,1.958,1.958,0,0,1,1.562-.528,1.908,1.908,0,0,1,1.373.426,1.659,1.659,0,0,1,.426,1.231Z" transform="translate(-600.081 -127.448)" fill="#1a1d21"/>
      <path id="Path_553" data-name="Path 553" d="M648.577,162.912a3.577,3.577,0,0,0-.974-.467,3.946,3.946,0,0,0-1.136-.149,2.8,2.8,0,0,0-2.2.879,3.776,3.776,0,0,0-.791,2.6,3.508,3.508,0,0,0,.75,2.5,2.862,2.862,0,0,0,2.172.791,3.582,3.582,0,0,0,1.271-.2,2.819,2.819,0,0,0,.987-.615l.088.683h.961v-9.231h-1.123Zm0,4.463a2.468,2.468,0,0,1-1.894.778,2.041,2.041,0,0,1-1.616-.555,2.789,2.789,0,0,1-.473-1.826,3.09,3.09,0,0,1,.507-1.954,1.98,1.98,0,0,1,1.61-.622,2.7,2.7,0,0,1,1.866.649Z" transform="translate(-593.627 -129.667)" fill="#1a1d21"/>
      <path id="Path_554" data-name="Path 554" d="M641.736,170.861h11.726V166.52H641.736v-6.884h13.271v-4.382H636.1v26.875h5.635Z" transform="translate(-636.101 -155.253)" fill="#1a1d21"/>
      <path id="Path_555" data-name="Path 555" d="M653.523,174.2l.209,1.88h5.221V156.3H653.32v14.019a7.261,7.261,0,0,1-2.151,1.481,6.242,6.242,0,0,1-2.651.568,4.007,4.007,0,0,1-2.9-.92,3.9,3.9,0,0,1-.94-2.881V156.3h-5.634v12.4a7.979,7.979,0,0,0,1.961,5.8,7.443,7.443,0,0,0,5.559,2A10.8,10.8,0,0,0,653.523,174.2Z" transform="translate(-619.138 -149.208)" fill="#1a1d21"/>
      <path id="Path_556" data-name="Path 556" d="M659.3,170.321a7.172,7.172,0,0,1-2.151,1.481,6.233,6.233,0,0,1-2.644.568,3.984,3.984,0,0,1-2.9-.92,3.894,3.894,0,0,1-.94-2.881V156.3H645.03v12.4a7.95,7.95,0,0,0,1.961,5.8,7.416,7.416,0,0,0,5.552,2,10.813,10.813,0,0,0,6.966-2.3l.21,1.88h5.214V156.3H659.3Z" transform="translate(-584.643 -149.208)" fill="#1a1d21"/>
      <path id="Path_557" data-name="Path 557" d="M654.271,158.708l-.25-2.049h-5.214V176.44h5.633v-13.81a15.462,15.462,0,0,1,3.213-1.278,27.25,27.25,0,0,1,3.841-.852V156.24a20.04,20.04,0,0,0-3.881.92A15.389,15.389,0,0,0,654.271,158.708Z" transform="translate(-562.877 -149.565)" fill="#1a1d21"/>
      <path id="Path_558" data-name="Path 558" d="M670.485,164.923A8.311,8.311,0,0,0,668,158.6q-2.475-2.364-6.993-2.36c-3.273,0-5.775.906-7.486,2.712s-2.563,4.328-2.563,7.554q0,5.133,2.942,7.743t8.2,2.61a17.566,17.566,0,0,0,7.223-1.258v-4a14.554,14.554,0,0,1-2.82.751,18.355,18.355,0,0,1-3.233.291,10.794,10.794,0,0,1-4.991-.913,4.285,4.285,0,0,1-2.1-3.212h14.317Zm-4.923.122h-9.394a5.01,5.01,0,0,1,1.123-3.652,5.5,5.5,0,0,1,3.882-1.1c2.921,0,4.389,1.224,4.389,3.672Z" transform="translate(-550.504 -149.565)" fill="#1a1d21"/>
      <path id="Path_559" data-name="Path 559" d="M651.724,175.844a2.829,2.829,0,0,1-.724-2.211v-8.805h4.673l.332-4.342h-5v-4.91l-5.633,1.542v3.368h-2.793v4.342h2.793V174a6.854,6.854,0,0,0,1.664,4.923,6.673,6.673,0,0,0,5.052,1.758,11.846,11.846,0,0,0,4.423-.751v-3.882a7.642,7.642,0,0,1-2.414.412A3.621,3.621,0,0,1,651.724,175.844Z" transform="translate(-598.796 -153.392)" fill="#1a1d21"/>
    </g>
    <g id="Group_462" data-name="Group 462" transform="translate(122.074 67.668)">
      <path id="Path_546-2" data-name="Path 546" d="M640.1,167.435l-2.833-7.681H636.1l3.355,8.817h1.314l3.342-8.817h-1.169Z" transform="translate(-636.101 -129.316)" fill="#1a1d21"/>
      <path id="Path_547-2" data-name="Path 547" d="M640.385,160.078a6.558,6.558,0,0,0-2.313.365v.933a6.532,6.532,0,0,1,2.157-.358,3.587,3.587,0,0,1,1.15.142.876.876,0,0,1,.548.44,1.9,1.9,0,0,1,.155.859v.4h-2.259a2.8,2.8,0,0,0-1.893.541,1.879,1.879,0,0,0-.616,1.481,1.739,1.739,0,0,0,.649,1.454,2.6,2.6,0,0,0,1.637.507,4.576,4.576,0,0,0,1.487-.216,2.464,2.464,0,0,0,1.029-.663l.088.744h.946v-4.247a2.213,2.213,0,0,0-.69-1.812A3.157,3.157,0,0,0,640.385,160.078Zm1.7,4.9a2.745,2.745,0,0,1-2.2.94,2.049,2.049,0,0,1-1.089-.237.879.879,0,0,1-.372-.8,1.107,1.107,0,0,1,.332-.879,1.693,1.693,0,0,1,1.089-.284h2.238Z" transform="translate(-629.102 -127.448)" fill="#1a1d21"/>
      <path id="Path_548-2" data-name="Path 548" d="M642.468,163.473a6.775,6.775,0,0,0-1.258-.494c-.487-.156-.831-.271-1.028-.352a1.069,1.069,0,0,1-.446-.291.712.712,0,0,1-.162-.494.634.634,0,0,1,.365-.629,2.971,2.971,0,0,1,1.238-.183,5.134,5.134,0,0,1,1.657.291v-.987a5.991,5.991,0,0,0-1.84-.257,3.265,3.265,0,0,0-1.927.453,1.524,1.524,0,0,0-.616,1.325,1.635,1.635,0,0,0,.23.913,1.688,1.688,0,0,0,.622.548,9.865,9.865,0,0,0,1.076.426l.371.129a6.981,6.981,0,0,1,.886.318,1.182,1.182,0,0,1,.426.311.784.784,0,0,1,.155.507.711.711,0,0,1-.358.69,2.99,2.99,0,0,1-1.245.183,5.964,5.964,0,0,1-1.995-.325v.981a4.626,4.626,0,0,0,.953.223,8.5,8.5,0,0,0,1.191.081q2.576,0,2.576-1.846a1.831,1.831,0,0,0-.209-.92A1.753,1.753,0,0,0,642.468,163.473Z" transform="translate(-622.555 -127.448)" fill="#1a1d21"/>
      <path id="Path_549-2" data-name="Path 549" d="M641.757,167.23a1.11,1.11,0,0,1-.277-.852v-3.74h1.731l.067-.886h-1.8v-1.941l-1.123.338v1.6h-.981v.886h.981v3.8a1.969,1.969,0,0,0,.5,1.434,1.917,1.917,0,0,0,1.44.507,3.21,3.21,0,0,0,1.156-.2v-.845a2.442,2.442,0,0,1-.778.135A1.361,1.361,0,0,1,641.757,167.23Z" transform="translate(-617.225 -128.987)" fill="#1a1d21"/>
      <path id="Path_550-2" data-name="Path 550" d="M642.993,160.078a3.432,3.432,0,0,0-2.171.561,2.137,2.137,0,0,0-.689,1.765,1.937,1.937,0,0,0,1.061,1.914,1.465,1.465,0,0,0-.751.5,1.25,1.25,0,0,0-.257.778,1.011,1.011,0,0,0,.447.893,2.371,2.371,0,0,0,1.346.311H643.7a1.889,1.889,0,0,1,.9.149.556.556,0,0,1,.25.507.585.585,0,0,1-.2.487,1.337,1.337,0,0,1-.615.21,8.842,8.842,0,0,1-1.17.054,10.051,10.051,0,0,1-1.332-.095,6.984,6.984,0,0,1-1.211-.271v.927a8,8,0,0,0,2.6.345,5.172,5.172,0,0,0,2.293-.392,1.349,1.349,0,0,0,.757-1.305,1.328,1.328,0,0,0-.521-1.136,2.427,2.427,0,0,0-1.495-.4h-1.785a1.58,1.58,0,0,1-.677-.1.359.359,0,0,1-.189-.352.661.661,0,0,1,.351-.568,1.686,1.686,0,0,1,.812-.25,7.132,7.132,0,0,0,.791.068,2.773,2.773,0,0,0,1.927-.588,2.2,2.2,0,0,0,.636-1.684,1.811,1.811,0,0,0-.588-1.427h1.176l.041-.764h-2.34A5.051,5.051,0,0,0,642.993,160.078ZM644.7,162.4a1.388,1.388,0,0,1-.379,1.109,2.126,2.126,0,0,1-1.332.311,2.171,2.171,0,0,1-1.346-.325,1.352,1.352,0,0,1-.392-1.1,1.423,1.423,0,0,1,.406-1.156,2.015,2.015,0,0,1,1.333-.352,1.946,1.946,0,0,1,1.318.358A1.5,1.5,0,0,1,644.7,162.4Z" transform="translate(-612.869 -127.448)" fill="#1a1d21"/>
      <path id="Path_551-2" data-name="Path 551" d="M644.394,160.078c-2.164,0-3.246,1.123-3.246,3.381a3.576,3.576,0,0,0,.792,2.529,3.961,3.961,0,0,0,4.909,0,3.577,3.577,0,0,0,.784-2.529C647.633,161.2,646.558,160.078,644.394,160.078Zm1.637,5.228a2.617,2.617,0,0,1-3.273,0,3.734,3.734,0,0,1,.007-3.7,2.6,2.6,0,0,1,3.26,0,2.816,2.816,0,0,1,.486,1.853A2.849,2.849,0,0,1,646.031,165.306Z" transform="translate(-607.013 -127.448)" fill="#1a1d21"/>
      <path id="Path_552-2" data-name="Path 552" d="M645.455,160.078a2.939,2.939,0,0,0-2.34.872,3.634,3.634,0,0,0-.764,2.482,3.456,3.456,0,0,0,.859,2.577,3.6,3.6,0,0,0,2.6.832,5.009,5.009,0,0,0,2.056-.372V165.6a4.88,4.88,0,0,1-1.832.338,4.538,4.538,0,0,1-1.434-.183,1.559,1.559,0,0,1-.811-.6,2.44,2.44,0,0,1-.311-1.17h4.8v-1.217a2.7,2.7,0,0,0-.717-1.948A2.8,2.8,0,0,0,645.455,160.078Zm1.819,3.091h-3.8a2.551,2.551,0,0,1,.439-1.664,1.958,1.958,0,0,1,1.562-.528,1.908,1.908,0,0,1,1.373.426,1.659,1.659,0,0,1,.426,1.231Z" transform="translate(-600.081 -127.448)" fill="#1a1d21"/>
      <path id="Path_553-2" data-name="Path 553" d="M648.577,162.912a3.577,3.577,0,0,0-.974-.467,3.946,3.946,0,0,0-1.136-.149,2.8,2.8,0,0,0-2.2.879,3.776,3.776,0,0,0-.791,2.6,3.508,3.508,0,0,0,.75,2.5,2.862,2.862,0,0,0,2.172.791,3.582,3.582,0,0,0,1.271-.2,2.819,2.819,0,0,0,.987-.615l.088.683h.961v-9.231h-1.123Zm0,4.463a2.468,2.468,0,0,1-1.894.778,2.041,2.041,0,0,1-1.616-.555,2.789,2.789,0,0,1-.473-1.826,3.09,3.09,0,0,1,.507-1.954,1.98,1.98,0,0,1,1.61-.622,2.7,2.7,0,0,1,1.866.649Z" transform="translate(-593.627 -129.667)" fill="#1a1d21"/>
      <path id="Path_554-2" data-name="Path 554" d="M641.736,170.861h11.726V166.52H641.736v-6.884h13.271v-4.382H636.1v26.875h5.635Z" transform="translate(-636.101 -155.253)" fill="#1a1d21"/>
      <path id="Path_555-2" data-name="Path 555" d="M653.523,174.2l.209,1.88h5.221V156.3H653.32v14.019a7.261,7.261,0,0,1-2.151,1.481,6.242,6.242,0,0,1-2.651.568,4.007,4.007,0,0,1-2.9-.92,3.9,3.9,0,0,1-.94-2.881V156.3h-5.634v12.4a7.979,7.979,0,0,0,1.961,5.8,7.443,7.443,0,0,0,5.559,2A10.8,10.8,0,0,0,653.523,174.2Z" transform="translate(-619.138 -149.208)" fill="#1a1d21"/>
      <path id="Path_556-2" data-name="Path 556" d="M659.3,170.321a7.172,7.172,0,0,1-2.151,1.481,6.233,6.233,0,0,1-2.644.568,3.984,3.984,0,0,1-2.9-.92,3.894,3.894,0,0,1-.94-2.881V156.3H645.03v12.4a7.95,7.95,0,0,0,1.961,5.8,7.416,7.416,0,0,0,5.552,2,10.813,10.813,0,0,0,6.966-2.3l.21,1.88h5.214V156.3H659.3Z" transform="translate(-584.643 -149.208)" fill="#1a1d21"/>
      <path id="Path_557-2" data-name="Path 557" d="M654.271,158.708l-.25-2.049h-5.214V176.44h5.633v-13.81a15.462,15.462,0,0,1,3.213-1.278,27.25,27.25,0,0,1,3.841-.852V156.24a20.04,20.04,0,0,0-3.881.92A15.389,15.389,0,0,0,654.271,158.708Z" transform="translate(-562.877 -149.565)" fill="#1a1d21"/>
      <path id="Path_558-2" data-name="Path 558" d="M670.485,164.923A8.311,8.311,0,0,0,668,158.6q-2.475-2.364-6.993-2.36c-3.273,0-5.775.906-7.486,2.712s-2.563,4.328-2.563,7.554q0,5.133,2.942,7.743t8.2,2.61a17.566,17.566,0,0,0,7.223-1.258v-4a14.554,14.554,0,0,1-2.82.751,18.355,18.355,0,0,1-3.233.291,10.794,10.794,0,0,1-4.991-.913,4.285,4.285,0,0,1-2.1-3.212h14.317Zm-4.923.122h-9.394a5.01,5.01,0,0,1,1.123-3.652,5.5,5.5,0,0,1,3.882-1.1c2.921,0,4.389,1.224,4.389,3.672Z" transform="translate(-550.504 -149.565)" fill="#1a1d21"/>
      <path id="Path_559-2" data-name="Path 559" d="M651.724,175.844a2.829,2.829,0,0,1-.724-2.211v-8.805h4.673l.332-4.342h-5v-4.91l-5.633,1.542v3.368h-2.793v4.342h2.793V174a6.854,6.854,0,0,0,1.664,4.923,6.673,6.673,0,0,0,5.052,1.758,11.846,11.846,0,0,0,4.423-.751v-3.882a7.642,7.642,0,0,1-2.414.412A3.621,3.621,0,0,1,651.724,175.844Z" transform="translate(-598.796 -153.392)" fill="#1a1d21"/>
    </g>
  </g>
</svg>
